<svg xmlns="http://www.w3.org/2000/svg" width="960" height="560" viewBox="0 0 960 560">
<rect width="100%" height="100%" fill="#f8fafc"/>
<text x="76" y="42" fill="#111827" font-family="Inter, Arial, sans-serif" font-size="28" font-weight="700">Розподіл розмірів файлів згенерованого тексту</text>
<text x="76" y="72" fill="#475569" font-family="Inter, Arial, sans-serif" font-size="14">Файлів: 771 | Мін: 95 B | Медіана: 7189 B | Середнє: 7304.8 B | Макс: 15345 B</text>
<line x1="76" y1="448" x2="928" y2="448" stroke="#94a3b8" stroke-width="1"/>
<line x1="76" y1="96" x2="76" y2="448" stroke="#94a3b8" stroke-width="1"/>
<rect x="87.9" y="407.8" width="61.3" height="40.2" rx="6" fill="#7c3aed"/>
<text x="118.6" y="399.8" text-anchor="middle" fill="#312e81" font-family="Inter, Arial, sans-serif" font-size="13" font-weight="700">17</text>
<text x="118.6" y="476" text-anchor="middle" fill="#334155" font-family="Inter, Arial, sans-serif" font-size="11" transform="rotate(35 118.6 476)">95-1620</text>
<rect x="173.1" y="334.6" width="61.3" height="113.4" rx="6" fill="#7c3aed"/>
<text x="203.8" y="326.6" text-anchor="middle" fill="#312e81" font-family="Inter, Arial, sans-serif" font-size="13" font-weight="700">48</text>
<text x="203.8" y="476" text-anchor="middle" fill="#334155" font-family="Inter, Arial, sans-serif" font-size="11" transform="rotate(35 203.8 476)">1621-3146</text>
<rect x="258.3" y="244.8" width="61.3" height="203.2" rx="6" fill="#7c3aed"/>
<text x="289.0" y="236.8" text-anchor="middle" fill="#312e81" font-family="Inter, Arial, sans-serif" font-size="13" font-weight="700">86</text>
<text x="289.0" y="476" text-anchor="middle" fill="#334155" font-family="Inter, Arial, sans-serif" font-size="11" transform="rotate(35 289.0 476)">3147-4672</text>
<rect x="343.5" y="133.8" width="61.3" height="314.2" rx="6" fill="#7c3aed"/>
<text x="374.2" y="125.8" text-anchor="middle" fill="#312e81" font-family="Inter, Arial, sans-serif" font-size="13" font-weight="700">133</text>
<text x="374.2" y="476" text-anchor="middle" fill="#334155" font-family="Inter, Arial, sans-serif" font-size="11" transform="rotate(35 374.2 476)">4673-6198</text>
<rect x="428.7" y="96.0" width="61.3" height="352.0" rx="6" fill="#7c3aed"/>
<text x="459.4" y="88.0" text-anchor="middle" fill="#312e81" font-family="Inter, Arial, sans-serif" font-size="13" font-weight="700">149</text>
<text x="459.4" y="476" text-anchor="middle" fill="#334155" font-family="Inter, Arial, sans-serif" font-size="11" transform="rotate(35 459.4 476)">6199-7724</text>
<rect x="513.9" y="126.7" width="61.3" height="321.3" rx="6" fill="#7c3aed"/>
<text x="544.6" y="118.7" text-anchor="middle" fill="#312e81" font-family="Inter, Arial, sans-serif" font-size="13" font-weight="700">136</text>
<text x="544.6" y="476" text-anchor="middle" fill="#334155" font-family="Inter, Arial, sans-serif" font-size="11" transform="rotate(35 544.6 476)">7725-9250</text>
<rect x="599.1" y="204.7" width="61.3" height="243.3" rx="6" fill="#7c3aed"/>
<text x="629.8" y="196.7" text-anchor="middle" fill="#312e81" font-family="Inter, Arial, sans-serif" font-size="13" font-weight="700">103</text>
<text x="629.8" y="476" text-anchor="middle" fill="#334155" font-family="Inter, Arial, sans-serif" font-size="11" transform="rotate(35 629.8 476)">9251-10776</text>
<rect x="684.3" y="299.2" width="61.3" height="148.8" rx="6" fill="#7c3aed"/>
<text x="715.0" y="291.2" text-anchor="middle" fill="#312e81" font-family="Inter, Arial, sans-serif" font-size="13" font-weight="700">63</text>
<text x="715.0" y="476" text-anchor="middle" fill="#334155" font-family="Inter, Arial, sans-serif" font-size="11" transform="rotate(35 715.0 476)">10777-12302</text>
<rect x="769.5" y="391.3" width="61.3" height="56.7" rx="6" fill="#7c3aed"/>
<text x="800.2" y="383.3" text-anchor="middle" fill="#312e81" font-family="Inter, Arial, sans-serif" font-size="13" font-weight="700">24</text>
<text x="800.2" y="476" text-anchor="middle" fill="#334155" font-family="Inter, Arial, sans-serif" font-size="11" transform="rotate(35 800.2 476)">12303-13828</text>
<rect x="854.7" y="419.7" width="61.3" height="28.3" rx="6" fill="#7c3aed"/>
<text x="885.4" y="411.7" text-anchor="middle" fill="#312e81" font-family="Inter, Arial, sans-serif" font-size="13" font-weight="700">12</text>
<text x="885.4" y="476" text-anchor="middle" fill="#334155" font-family="Inter, Arial, sans-serif" font-size="11" transform="rotate(35 885.4 476)">13829-15345</text>
</svg>